# xmcd
#
# Track frame offsets: 
#        150
#        13242
#        31591
#        52980
#        67165
#        87207
#        100581
#        116158
#        127311
#        148763
#        157725
#        175373
#
# Disc length: 2545 seconds
#
# Revision: 0
# Processed by: cddbd v1.5.2PL0 Copyright (c) Steve Scherf et al.
# Submitted via: ExactAudioCopy v0.99pb5
#
DISCID=a109ef0c
DTITLE=Thea Gilmore - John Wesley Harding
DYEAR=2011
DGENRE=Alt. Rock
TTITLE0=John Wesley Harding
TTITLE1=As I went out one morning
TTITLE2=I dreamed I saw St Augustine
TTITLE3=All along the Watchtower
TTITLE4=The ballad of Frankie Lee and Judas Priest
TTITLE5=Drifter's Escape
TTITLE6=Dear Landlord
TTITLE7=I am a lonesome hobo
TTITLE8=I pity the poor immigrant
TTITLE9=The wicked messenger
TTITLE10=Down along the cove
TTITLE11=I'll be your baby tonight
EXTD=
EXTT0=
EXTT1=
EXTT2=
EXTT3=
EXTT4=
EXTT5=
EXTT6=
EXTT7=
EXTT8=
EXTT9=
EXTT10=
EXTT11=
PLAYORDER=
